<svg xmlns="http://www.w3.org/2000/svg" height="388px" width="800px" version="1.1" xmlns:xlink="http://www.w3.org/1999/xlink" viewBox="0 0 800 388">
 <desc>Created with Sketch.</desc>
 <defs>
  <rect id="path-1" y="0" x="0" height="389" width="800"/>
  <linearGradient id="linearGradient-3" y1="50%" x2="24.117%" x1="50%" y2="50%">
   <stop stop-color="#EBEBEC" offset="0"/>
   <stop stop-color="#F8F8F8" offset="1"/>
  </linearGradient>
  <rect id="path-4" y="387" x="0" height="2" width="800"/>
 </defs>
 <g id="v0.4" fill-rule="evenodd" stroke="none" stroke-width="1" fill="none">
  <g id="Full-page-(D)" transform="translate(-113 -114)">
   <g id="Hero">
    <g id="Illustration" transform="translate(113 113)">
     <mask id="mask-2" fill="white">
      <use xlink:href="#path-1"/>
     </mask>
     <g id="Horizon-Line" mask="url(#mask-2)">
      <use xlink:href="#path-4" fill="url(#linearGradient-3)"/>
      <use xlink:href="#path-4" fill="#EBEBEC"/>
     </g>
     <g id="Shapes" fill-rule="nonzero" mask="url(#mask-2)" fill="#EBEBEC">
      <g transform="translate(424 1)">
       <path id="Combined-Shape" d="m249.31 381.03c-3.64-.64-6.41-3.84-6.41-7.67 0-4.29 3.48-7.78 7.77-7.78 4.28 0 7.77 3.49 7.77 7.78 0 3.83-2.77 7.03-6.42 7.67v7.21h-2.71v-7.21zm.07-2.76h2.57c2.17-.57 3.78-2.56 3.78-4.91 0-2.79-2.27-5.06-5.06-5.06s-5.06 2.27-5.06 5.06c0 2.35 1.6 4.34 3.77 4.91z"/>
       <path id="Combined-Shape" d="m230.56 381.62c-2.72-.74-5.31-3.6-5.31-7.26 0-3.81 4.93-12.41 5.49-13.38l1.28-2.2 1.11 2.29c.84 1.72 5.03 10.48 5.03 13.29 0 3.82-1.95 6.64-4.89 7.3v5.26h-2.71v-5.3zm.45-2.7h1.94c1.53-.52 2.5-2.23 2.5-4.56 0-1.32-1.87-5.88-3.63-9.72-1.83 3.43-3.86 7.85-3.86 9.72 0 2.38 1.59 4.05 3.05 4.56z"/>
       <path id="Combined-Shape" d="m73.825 379.22c-3.641-.64-6.416-3.84-6.416-7.67 0-4.29 3.486-7.78 7.772-7.78 4.287 0 7.773 3.49 7.773 7.78 0 3.83-2.774 7.03-6.416 7.67v7.21h-2.713v-7.21zm.079-2.76h2.555c2.173-.57 3.782-2.55 3.782-4.91 0-2.79-2.27-5.07-5.06-5.07-2.789 0-5.059 2.28-5.059 5.07 0 2.36 1.609 4.34 3.782 4.91z"/>
       <path id="Combined-Shape" d="m137.77 335.71h-9.51c-.75 0-1.36-.60-1.36-1.35s.61-1.36 1.36-1.36h10.85v-159.28h-65.65v159.28h44.49c.75 0 1.36.61 1.36 1.36s-.61 1.35-1.36 1.35h-42.102c18.776 15.47 14.44 48.3 14.237 49.75l-.189 1.35-2.685-.38.187-1.34c.049-.36 4.689-35.57-15.682-49.06l-1.13-.75.266-.40c-.068-.16-.105-.34-.105-.52v-162c0-.75.607-1.36 1.356-1.36h68.357c.75 0 1.36.61 1.36 1.36v162c0 .37-.15.70-.38.95l.41.50-1.05.86c-18.92 15.65-14.75 47.73-14.71 48.06l.19 1.34-2.69.37-.18-1.34c-.19-1.35-4.23-32.48 14.36-49.39zm-14.39 0h-.34c-.75 0-1.36-.60-1.36-1.35s.61-1.36 1.36-1.36h.34c.74 0 1.35.61 1.35 1.36s-.61 1.35-1.35 1.35zm-44.495-7.61v-141.88h2.713v141.88h-2.713zm5.787 0v-141.88h2.713v141.88h-2.713zm5.787 0v-141.88h2.713v141.88h-2.713zm5.788 0v-141.88h2.713v141.88h-2.713zm5.783 0v-141.88h2.72v141.88h-2.72zm5.79 0v-141.88h2.71v141.88h-2.71zm5.79 0v-141.88h2.71v141.88h-2.71zm5.79 0v-141.88h2.71v141.88h-2.71zm5.78 0v-141.88h2.72v141.88h-2.72zm5.79 0v-141.88h2.71v141.88h-2.71z"/>
       <path id="Combined-Shape" d="m233.75 85.883h5.16c.75 0 1.35.608 1.35 1.359v196.88h-2.71v-195.52l-53.71.001v204.58h-2.71v-205.94c0-.749.60-1.357 1.35-1.357h2.99v-6.796h30.92 17.36v6.796zm-2.71 0v-4.078h-14.65v4.078h14.65zm-17.36-4.078h-2.17-23.33v4.078h25.5v-4.078zm18.72 11.96h-5.96c-.75 0-1.35-.609-1.35-1.359s.60-1.359 1.35-1.359h5.96c.75 0 1.35.609 1.35 1.359s-.60 1.359-1.35 1.359zm-10.66 0h-.17c-.75 0-1.36-.609-1.36-1.359s.61-1.359 1.36-1.359h.17c.75 0 1.36.609 1.36 1.359s-.61 1.359-1.36 1.359zm10.66 9.445h-5.96c-.75 0-1.35-.61-1.35-1.36s.60-1.36 1.35-1.36h5.96c.75 0 1.35.61 1.35 1.36s-.60 1.36-1.35 1.36zm-10.66 0h-.17c-.75 0-1.36-.61-1.36-1.36s.61-1.36 1.36-1.36h.17c.75 0 1.36.61 1.36 1.36s-.61 1.36-1.36 1.36zm10.66 9.44h-5.96c-.75 0-1.35-.61-1.35-1.36s.60-1.35 1.35-1.35h5.96c.75 0 1.35.60 1.35 1.35s-.60 1.36-1.35 1.36zm-10.66 0h-.17c-.75 0-1.36-.61-1.36-1.36s.61-1.35 1.36-1.35h.17c.75 0 1.35.60 1.35 1.35s-.60 1.36-1.35 1.36zm10.66 9.45h-5.96c-.75 0-1.35-.61-1.35-1.36s.60-1.36 1.35-1.36h5.96c.75 0 1.35.61 1.35 1.36s-.60 1.36-1.35 1.36zm-10.66 0h-.17c-.75 0-1.36-.61-1.36-1.36s.61-1.36 1.36-1.36h.17c.75 0 1.35.61 1.35 1.36s-.60 1.36-1.35 1.36zm10.66 9.44h-5.96c-.75 0-1.35-.61-1.35-1.36s.60-1.36 1.35-1.36h5.96c.75 0 1.35.61 1.35 1.36s-.60 1.36-1.35 1.36zm-10.66 0h-.17c-.75 0-1.36-.61-1.36-1.36s.61-1.36 1.36-1.36h.17c.75 0 1.35.61 1.35 1.36s-.60 1.36-1.35 1.36zm10.66 9.45h-5.96c-.75 0-1.35-.61-1.35-1.36s.60-1.36 1.35-1.36h5.96c.75 0 1.35.61 1.35 1.36s-.60 1.36-1.35 1.36zm-10.66 0h-.17c-.75 0-1.36-.61-1.36-1.36s.61-1.36 1.36-1.36h.17c.74 0 1.35.61 1.35 1.36s-.61 1.36-1.35 1.36zm10.66 9.44h-5.96c-.75 0-1.35-.61-1.35-1.36s.60-1.36 1.35-1.36h5.96c.75 0 1.35.61 1.35 1.36s-.60 1.36-1.35 1.36zm-10.67 0h-.16c-.75 0-1.36-.61-1.36-1.36s.61-1.36 1.36-1.36h.16c.75 0 1.36.61 1.36 1.36s-.61 1.36-1.36 1.36zm10.67 9.44h-5.96c-.75 0-1.35-.60-1.35-1.35s.60-1.36 1.35-1.36h5.96c.75 0 1.35.61 1.35 1.36s-.60 1.35-1.35 1.35zm-10.67 0h-.16c-.75 0-1.36-.60-1.36-1.35s.61-1.36 1.36-1.36h.16c.75 0 1.36.61 1.36 1.36s-.61 1.35-1.36 1.35zm10.67 9.45h-5.96c-.75 0-1.35-.61-1.35-1.36s.60-1.36 1.35-1.36h5.96c.75 0 1.35.61 1.35 1.36s-.60 1.36-1.35 1.36zm-10.67 0h-.16c-.75 0-1.36-.61-1.36-1.36s.61-1.36 1.36-1.36h.16c.75 0 1.36.61 1.36 1.36s-.61 1.36-1.36 1.36zm10.67 9.44h-5.96c-.75 0-1.35-.61-1.35-1.36s.60-1.35 1.35-1.35h5.96c.75 0 1.35.60 1.35 1.35s-.60 1.36-1.35 1.36zm-10.67 0h-.16c-.75 0-1.36-.61-1.36-1.36s.61-1.35 1.36-1.35h.16c.75 0 1.36.60 1.36 1.35s-.61 1.36-1.36 1.36zm10.67 9.45h-5.96c-.75 0-1.35-.61-1.35-1.36s.60-1.36 1.35-1.36h5.96c.75 0 1.35.61 1.35 1.36s-.60 1.36-1.35 1.36zm-10.67 0h-.16c-.75 0-1.36-.61-1.36-1.36s.61-1.36 1.36-1.36h.16c.75 0 1.36.61 1.36 1.36s-.61 1.36-1.36 1.36zm10.67 9.44h-5.96c-.75 0-1.35-.61-1.35-1.36s.60-1.36 1.35-1.36h5.96c.75 0 1.35.61 1.35 1.36s-.60 1.36-1.35 1.36zm-10.67 0h-.16c-.75 0-1.36-.61-1.36-1.36s.61-1.36 1.36-1.36h.16c.75 0 1.36.61 1.36 1.36s-.61 1.36-1.36 1.36zm10.67 9.45h-5.96c-.75 0-1.35-.61-1.35-1.36s.60-1.36 1.35-1.36h5.96c.75 0 1.35.61 1.35 1.36s-.60 1.36-1.35 1.36zm-10.67 0h-.16c-.75 0-1.36-.61-1.36-1.36s.61-1.36 1.36-1.36h.16c.75 0 1.36.61 1.36 1.36s-.61 1.36-1.36 1.36zm10.67 9.44h-5.96c-.75 0-1.35-.61-1.35-1.36s.60-1.36 1.35-1.36h5.96c.75 0 1.35.61 1.35 1.36s-.60 1.36-1.35 1.36zm-10.67 0h-.16c-.75 0-1.36-.61-1.36-1.36s.61-1.36 1.36-1.36h.16c.75 0 1.35.61 1.35 1.36s-.60 1.36-1.35 1.36zm10.67 9.44h-5.96c-.75 0-1.35-.60-1.35-1.35s.60-1.36 1.35-1.36h5.96c.75 0 1.35.61 1.35 1.36s-.60 1.35-1.35 1.35zm-10.67 0h-.16c-.75 0-1.36-.60-1.36-1.35s.61-1.36 1.36-1.36h.16c.75 0 1.35.61 1.35 1.36s-.60 1.35-1.35 1.35zm10.67 9.45h-5.96c-.75 0-1.35-.61-1.35-1.36s.60-1.36 1.35-1.36h5.96c.75 0 1.35.61 1.35 1.36s-.60 1.36-1.35 1.36zm-10.67 0h-.16c-.75 0-1.36-.61-1.36-1.36s.61-1.36 1.36-1.36h.16c.74 0 1.35.61 1.35 1.36s-.61 1.36-1.35 1.36zm10.67 9.44h-5.96c-.75 0-1.35-.61-1.35-1.36s.60-1.36 1.35-1.36h5.96c.75 0 1.35.61 1.35 1.36s-.60 1.36-1.35 1.36zm-10.68 0h-.15c-.75 0-1.36-.61-1.36-1.36s.61-1.36 1.36-1.36h.15c.75 0 1.36.61 1.36 1.36s-.61 1.36-1.36 1.36zm10.68 9.45h-5.96c-.75 0-1.35-.61-1.35-1.36s.60-1.36 1.35-1.36h5.96c.75 0 1.35.61 1.35 1.36s-.60 1.36-1.35 1.36zm-10.68 0h-.15c-.75 0-1.36-.61-1.36-1.36s.61-1.36 1.36-1.36h.15c.75 0 1.36.61 1.36 1.36s-.61 1.36-1.36 1.36zm10.68 9.44h-5.96c-.75 0-1.35-.61-1.35-1.36s.60-1.36 1.35-1.36h5.96c.75 0 1.35.61 1.35 1.36s-.60 1.36-1.35 1.36zm-10.68 0h-.15c-.75 0-1.36-.61-1.36-1.36s.61-1.36 1.36-1.36h.15c.75 0 1.36.61 1.36 1.36s-.61 1.36-1.36 1.36zm10.68 9.45h-5.96c-.75 0-1.35-.61-1.35-1.36s.60-1.36 1.35-1.36h5.96c.75 0 1.35.61 1.35 1.36s-.60 1.36-1.35 1.36zm-10.68 0h-.15c-.75 0-1.36-.61-1.36-1.36s.61-1.36 1.36-1.36h.15c.75 0 1.36.61 1.36 1.36s-.61 1.36-1.36 1.36zm10.68 9.44h-5.96c-.75 0-1.35-.61-1.35-1.36s.60-1.36 1.35-1.36h5.96c.75 0 1.35.61 1.35 1.36s-.60 1.36-1.35 1.36zm-10.68 0h-.15c-.75 0-1.36-.61-1.36-1.36s.61-1.36 1.36-1.36h.15c.75 0 1.36.61 1.36 1.36s-.61 1.36-1.36 1.36zm10.68 9.44h-5.96c-.75 0-1.35-.60-1.35-1.35 0-.76.60-1.36 1.35-1.36h5.96c.75 0 1.35.60 1.35 1.36 0 .75-.60 1.35-1.35 1.35zm-10.68 0h-.15c-.75 0-1.36-.60-1.36-1.35 0-.76.61-1.36 1.36-1.36h.15c.75 0 1.36.60 1.36 1.36 0 .75-.61 1.35-1.36 1.35zm-35.35-198.24v-2.718h28.03v2.718h-28.03zm0 9.445v-2.71h28.06v2.71h-28.06zm-.01 9.45v-2.72h28.09v2.72h-28.09zm0 9.45v-2.72h28.11v2.72h-28.11zm-.01 9.45v-2.72h28.14v2.72h-28.14zm0 9.45v-2.72h28.16v2.72h-28.16zm0 9.45v-2.72h28.18v2.72h-28.18zm-.01 9.45v-2.72h28.21v2.72h-28.21zm0 9.44v-2.71h28.24v2.71h-28.24zm-.01 9.45v-2.72h28.27v2.72h-28.27zm0 9.45v-2.72h28.29v2.72h-28.29zm-.01 9.45v-2.72h28.32v2.72h-28.32zm0 9.45v-2.72h28.34v2.72h-28.34zm0 9.45v-2.72h28.36v2.72h-28.36zm-.01 9.44v-2.71h28.39v2.71h-28.39zm0 9.45v-2.71h28.42v2.71h-28.42zm-.01 9.45v-2.72h28.45v2.72h-28.45zm0 9.45v-2.72h28.47v2.72h-28.47zm0 9.45v-2.72h28.49v2.72h-28.49zm-.01 9.45v-2.72h28.52v2.72h-28.52zm0 9.45v-2.72h28.54v2.72h-28.54zm-.01 9.44v-2.71h28.57v2.71h-28.57zm51.32 4.22v-7.07h2.71v7.07h-2.71z"/>
       <path id="Combined-Shape" d="m166.21 167.42h17.36v-2.71h-13.02v-2.18h12.48v-2.72h-15.2v4.9h-3.79v2.71h2.17v106.19h-2.72v-108.9h2.72v2.71z"/>
       <path id="Combined-Shape" d="m274.17 165.79h-9.76v41.86h10.32v-.27h9.62v-7.26c-.03-.11-.05-.23-.05-.35v-3.44c0-.75.61-1.36 1.36-1.36s1.35.61 1.35 1.36v1.13h.05v9.92h5.83v-30.53h-6.04c-.01 3.11-.01 6.74-.01 10.78 0 .75-.61 1.36-1.36 1.36s-1.36-.61-1.36-1.36c0-4.04.01-7.67.02-10.78h-7.25v27h-2.72v-7.25h-7.5v-2.72h7.5v-13.95h-7.27v-2.72h7.27v-11.42zm-.26-2.72v-2.53h-6.22l-2.54 2.53h8.76zm-12.05 0l-.27-.27 4.97-4.98h7.35v-8.7h.33l-.17-.18 14.75-13.39v-4.28h2.72v3.97l.14.15 13.34 13.73h.53v.55l.11.11-.11.11v7.93h5.87l5.67 5.25h.48l.01.45.02.02-.02.03.18 43.63h3.08l-1.1 180.4-2.71-.02 1.08-177.57h-12.65v.09h-.36v8.7h11.39v2.71h-11.39v166.08h-2.71v-166.08h-6.79v161.19h-2.71v-161.19h-5.88c-.01 64.79-.09 159.83-.09 159.83l-2.71-.01s.08-95.03.09-159.82h-7.41v166.08h-2.72v-166.08h-11.93v-2.71h11.93v-8.43h-12.03l-.45 83.45-2.71-.01.46-86.16h2.26v-44.58h.16zm51.24 0l-2.74-2.53h-4.81v2.53h7.55zm-8 2.72v11.42h9.13v2.72h-9.13v13.95h8.62v2.72h-8.62v7.25h-2.71v-27h-6.79v30.53h6.79v-.09h.45 12.2l-.17-41.5h-9.77zm-18.18 0c-.01 1.32-.04 4.22-.06 8.34h6.03v-8.34h-5.97zm-2.72 0h-7.31v8.34h7.26c.02-4.1.04-7 .05-8.34zm-7.22-2.72h25.41v-2.16c-.97-1.18-4.88-5.27-12.68-5.27-.14 0-.27 0-.41.01-8.03.14-11.44 3.83-12.24 4.88l-.08 2.54zm25.41 2.72h-6.79v8.34h6.79v-8.34zm-9.5 44.31h-5.88v8.7h5.88v-8.7zm2.71 0v8.7h6.79v-8.7h-6.79zm-11.3 0h-7.41v8.7h7.41v-8.7zm16.94-60.98l-10.93-11.25-12.4 11.25h23.33zm-24.62 8c2.14-1.81 6.1-4.07 12.63-4.19.16 0 .31-.01.46-.01 6.61 0 10.86 2.62 13.13 4.59v-5.67h-26.22v5.28zm32.39 17.66l-.10-6.43 2.71-.04.10 6.43-2.71.04zm-.08 16.93v-9.25h2.71v9.25h-2.71zm0 12.95v-5.89h2.71v5.89h-2.71zm-.22 12.51v-5.44h2.72v5.44h-2.72zm-40.29-41.77v-7.07h2.71v7.07h-2.71zm0 16.31v-9.25h2.71v9.25h-2.71zm0 12.95v-5.89h2.71v5.89h-2.71zm19.95 21.47v-1.99h3.07v1.99h-3.07zm0 6.27v-2h3.07v2h-3.07zm0 6.26v-1.99h3.07v1.99h-3.07zm0 6.26v-1.99h3.07v1.99h-3.07zm0 6.26v-1.99h3.07v1.99h-3.07zm0 6.27v-2h3.07v2h-3.07zm0 6.26v-1.99h3.07v1.99h-3.07zm0 6.26v-1.99h3.07v1.99h-3.07zm0 6.26v-1.99h3.07v1.99h-3.07zm0 6.27v-2h3.07v2h-3.07zm0 6.26v-1.99h3.07v1.99h-3.07zm0 6.26v-1.99h3.07v1.99h-3.07zm0 6.26v-1.99h3.07v1.99h-3.07zm0 6.27v-2h3.07v2h-3.07zm0 6.26v-1.99h3.07v1.99h-3.07zm0 6.26v-1.99h3.07v1.99h-3.07zm0 6.26v-1.99h3.07v1.99h-3.07zm0 6.26v-1.99h3.07v1.99h-3.07zm0 6.27v-1.99h3.07v1.99h-3.07zm0 6.26v-1.99h3.07v1.99h-3.07zm0 6.26v-1.99h3.07v1.99h-3.07zm0 6.26v-1.99h3.07v1.99h-3.07zm0 6.27v-1.99h3.07v1.99h-3.07zm0 6.26v-1.99h3.07v1.99h-3.07zm0 6.26v-1.99h3.07v1.99h-3.07zm0 6.27v-2h3.07v2h-3.07zm18.83-156.66v-1.99h3.66v1.99h-3.66zm0 6.31v-1.99h3.66v1.99h-3.66zm0 6.3v-1.99h3.66v1.99h-3.66zm0 6.31v-1.99h3.66v1.99h-3.66zm0 6.31v-1.99h3.66v1.99h-3.66zm0 6.3v-1.99h3.66v1.99h-3.66zm0 6.31v-1.99h3.66v1.99h-3.66zm0 6.3v-1.99h3.66v1.99h-3.66zm0 6.31v-1.99h3.66v1.99h-3.66zm0 6.31v-2h3.66v2h-3.66zm0 6.3v-1.99h3.66v1.99h-3.66zm0 6.31v-1.99h3.66v1.99h-3.66zm0 6.3v-1.99h3.66v1.99h-3.66zm0 6.31v-1.99h3.66v1.99h-3.66zm0 6.31v-2h3.66v2h-3.66zm0 6.3v-1.99h3.66v1.99h-3.66zm0 6.31v-1.99h3.66v1.99h-3.66zm0 6.3v-1.99h3.66v1.99h-3.66zm0 6.31v-1.99h3.66v1.99h-3.66zm0 6.31v-2h3.66v2h-3.66zm0 6.3v-1.99h3.66v1.99h-3.66zm0 6.31v-2h3.66v2h-3.66zm0 6.3v-1.99h3.66v1.99h-3.66zm0 6.31v-1.99h3.66v1.99h-3.66zm0 6.31v-2h3.66v2h-3.66zm0 6.3v-1.99h3.66v1.99h-3.66zm5.38-157.65v-1.99h3.66v1.99h-3.66zm0 6.31v-1.99h3.66v1.99h-3.66zm0 6.3v-1.99h3.66v1.99h-3.66zm0 6.31v-1.99h3.66v1.99h-3.66zm0 6.31v-1.99h3.66v1.99h-3.66zm0 6.3v-1.99h3.66v1.99h-3.66zm0 6.31v-1.99h3.66v1.99h-3.66zm0 6.3v-1.99h3.66v1.99h-3.66zm0 6.31v-1.99h3.66v1.99h-3.66zm0 6.31v-2h3.66v2h-3.66zm0 6.3v-1.99h3.66v1.99h-3.66zm0 6.31v-1.99h3.66v1.99h-3.66zm0 6.3v-1.99h3.66v1.99h-3.66zm0 6.31v-1.99h3.66v1.99h-3.66zm0 6.31v-2h3.66v2h-3.66zm0 6.3v-1.99h3.66v1.99h-3.66zm0 6.31v-1.99h3.66v1.99h-3.66zm0 6.3v-1.99h3.66v1.99h-3.66zm0 6.31v-1.99h3.66v1.99h-3.66zm.01 6.31v-2h3.65v2h-3.65zm0 6.3v-1.99h3.65v1.99h-3.65zm0 6.31v-2h3.65v2h-3.65zm0 6.3v-1.99h3.65v1.99h-3.65zm0 6.31v-1.99h3.65v1.99h-3.65zm0 6.31v-2h3.65v2h-3.65zm0 6.3v-1.99h3.65v1.99h-3.65zm-49.18-157.74v-1.99h3.66v1.99h-3.66zm0 6.31v-1.99h3.66v1.99h-3.66zm0 6.3v-1.99h3.66v1.99h-3.66zm0 6.31v-1.99h3.66v1.99h-3.66zm0 6.31v-1.99h3.66v1.99h-3.66zm0 6.3v-1.99h3.66v1.99h-3.66zm0 6.31v-1.99h3.66v1.99h-3.66zm0 6.3v-1.99h3.66v1.99h-3.66zm0 6.31v-1.99h3.66v1.99h-3.66zm0 6.31v-2h3.66v2h-3.66zm0 6.3v-1.99h3.66v1.99h-3.66zm0 6.31v-1.99h3.66v1.99h-3.66zm0 6.3v-1.99h3.66v1.99h-3.66zm5.38-75.67v-1.99h3.66v1.99h-3.66zm0 6.31v-1.99h3.66v1.99h-3.66zm0 6.3v-1.99h3.66v1.99h-3.66zm0 6.31v-1.99h3.66v1.99h-3.66zm0 6.31v-2h3.66v2h-3.66zm0 6.3v-1.99h3.66v1.99h-3.66zm0 6.31v-2h3.66v2h-3.66zm.01 6.3v-1.99h3.66v1.99h-3.66zm0 6.31v-1.99h3.66v1.99h-3.66zm0 6.31v-2h3.66v2h-3.66zm0 6.3v-1.99h3.66v1.99h-3.66zm0 6.31v-2h3.66v2h-3.66zm0 6.3v-1.99h3.66v1.99h-3.66zm0 6.31v-1.99h3.66v1.99h-3.66zm0 6.31v-2h3.66v2h-3.66zm0 6.3v-1.99h3.66v1.99h-3.66zm0 6.31v-2h3.66v2h-3.66zm0 6.3v-1.99h3.66v1.99h-3.66zm0 6.31v-1.99h3.66v1.99h-3.66zm0 6.31v-2h3.66v2h-3.66zm0 6.3v-1.99h3.66v1.99h-3.66zm0 6.31v-2h3.66v2h-3.66zm0 6.3v-1.99h3.66v1.99h-3.66zm0 6.31v-1.99h3.66v1.99h-3.66zm0 6.31v-2h3.66v2h-3.66zm0 6.3v-1.99h3.66v1.99h-3.66zm16.77-190.62c-.36 0-.72-.16-.97-.41-.24-.25-.39-.59-.39-.95s.15-.71.39-.97c.52-.50 1.43-.50 1.93 0 .24.26.40.61.40.97s-.16.70-.40.95c-.25.25-.60.41-.96.41zm12.38 72.03c0-.75.61-1.36 1.36-1.36s1.36.61 1.36 1.36c0 .74-.61 1.35-1.36 1.35s-1.36-.61-1.36-1.35zm0 6.52c0-.75.61-1.36 1.36-1.36s1.36.61 1.36 1.36-.61 1.36-1.36 1.36-1.36-.61-1.36-1.36zm0 6.52c0-.75.61-1.36 1.36-1.36s1.36.61 1.36 1.36-.61 1.36-1.36 1.36-1.36-.61-1.36-1.36zm0 6.53c0-.75.61-1.36 1.36-1.36s1.36.61 1.36 1.36c0 .74-.61 1.35-1.36 1.35s-1.36-.61-1.36-1.35zm0 6.52c0-.75.61-1.36 1.36-1.36s1.36.61 1.36 1.36-.61 1.36-1.36 1.36-1.36-.61-1.36-1.36zm0 6.52c0-.75.61-1.36 1.36-1.36s1.36.61 1.36 1.36-.61 1.36-1.36 1.36-1.36-.61-1.36-1.36zm0 6.53c0-.75.61-1.36 1.36-1.36s1.36.61 1.36 1.36c0 .74-.61 1.35-1.36 1.35s-1.36-.61-1.36-1.35zm0 6.52c0-.75.61-1.36 1.36-1.36s1.36.61 1.36 1.36-.61 1.36-1.36 1.36-1.36-.61-1.36-1.36zm0 6.52c0-.75.61-1.36 1.36-1.36s1.36.61 1.36 1.36-.61 1.36-1.36 1.36-1.36-.61-1.36-1.36zm0 6.53c0-.75.61-1.36 1.36-1.36s1.36.61 1.36 1.36-.61 1.36-1.36 1.36-1.36-.61-1.36-1.36zm0 6.52c0-.75.61-1.36 1.36-1.36s1.36.61 1.36 1.36-.61 1.36-1.36 1.36-1.36-.61-1.36-1.36zm0 6.52c0-.75.61-1.36 1.36-1.36s1.36.61 1.36 1.36-.61 1.36-1.36 1.36-1.36-.61-1.36-1.36zm0 6.53c0-.75.61-1.36 1.36-1.36s1.36.61 1.36 1.36-.61 1.36-1.36 1.36-1.36-.61-1.36-1.36zm0 6.52c0-.75.61-1.36 1.36-1.36s1.36.61 1.36 1.36-.61 1.36-1.36 1.36-1.36-.61-1.36-1.36zm0 6.52c0-.75.61-1.36 1.36-1.36s1.36.61 1.36 1.36-.61 1.36-1.36 1.36-1.36-.61-1.36-1.36zm0 6.53c0-.75.61-1.36 1.36-1.36s1.36.61 1.36 1.36-.61 1.36-1.36 1.36-1.36-.61-1.36-1.36zm0 6.52c0-.75.61-1.36 1.36-1.36s1.36.61 1.36 1.36-.61 1.36-1.36 1.36-1.36-.61-1.36-1.36zm0 6.52c0-.75.61-1.36 1.36-1.36s1.36.61 1.36 1.36-.61 1.36-1.36 1.36-1.36-.61-1.36-1.36zm0 6.53c0-.75.61-1.36 1.36-1.36s1.36.61 1.36 1.36-.61 1.36-1.36 1.36-1.36-.61-1.36-1.36zm-18.08-115.98c0-.75.61-1.36 1.36-1.36s1.36.61 1.36 1.36-.61 1.36-1.36 1.36-1.36-.61-1.36-1.36zm0 6.53c0-.76.61-1.36 1.36-1.36s1.36.60 1.36 1.36c0 .74-.61 1.35-1.36 1.35s-1.36-.61-1.36-1.35zm0 6.52c0-.75.61-1.36 1.36-1.36s1.36.61 1.36 1.36-.61 1.36-1.36 1.36-1.36-.61-1.36-1.36zm0 6.52c0-.75.61-1.36 1.36-1.36s1.36.61 1.36 1.36-.61 1.36-1.36 1.36-1.36-.61-1.36-1.36zm0 6.53c0-.75.61-1.36 1.36-1.36s1.36.61 1.36 1.36c0 .74-.61 1.35-1.36 1.35s-1.36-.61-1.36-1.35zm0 6.52c0-.75.61-1.36 1.36-1.36s1.36.61 1.36 1.36-.61 1.36-1.36 1.36-1.36-.61-1.36-1.36zm0 6.52c0-.75.61-1.36 1.36-1.36s1.36.61 1.36 1.36-.61 1.36-1.36 1.36-1.36-.61-1.36-1.36zm0 6.53c0-.75.61-1.36 1.36-1.36s1.36.61 1.36 1.36c0 .74-.61 1.35-1.36 1.35s-1.36-.61-1.36-1.35zm0 6.52c0-.75.61-1.36 1.36-1.36s1.36.61 1.36 1.36-.61 1.36-1.36 1.36-1.36-.61-1.36-1.36zm0 6.52c0-.75.61-1.36 1.36-1.36s1.36.61 1.36 1.36-.61 1.36-1.36 1.36-1.36-.61-1.36-1.36zm0 6.53c0-.75.61-1.36 1.36-1.36s1.36.61 1.36 1.36c0 .74-.61 1.35-1.36 1.35s-1.36-.61-1.36-1.35zm0 6.52c0-.75.61-1.36 1.36-1.36s1.36.61 1.36 1.36-.61 1.36-1.36 1.36-1.36-.61-1.36-1.36zm0 6.52c0-.75.61-1.36 1.36-1.36s1.36.61 1.36 1.36-.61 1.36-1.36 1.36-1.36-.61-1.36-1.36zm0 6.53c0-.75.61-1.36 1.36-1.36s1.36.61 1.36 1.36c0 .74-.61 1.35-1.36 1.35s-1.36-.61-1.36-1.35zm0 6.52c0-.75.61-1.36 1.36-1.36s1.36.61 1.36 1.36-.61 1.36-1.36 1.36-1.36-.61-1.36-1.36zm0 6.52c0-.75.61-1.36 1.36-1.36s1.36.61 1.36 1.36-.61 1.36-1.36 1.36-1.36-.61-1.36-1.36zm0 6.53c0-.75.61-1.36 1.36-1.36s1.36.61 1.36 1.36c0 .74-.61 1.35-1.36 1.35s-1.36-.61-1.36-1.35zm0 6.52c0-.75.61-1.36 1.36-1.36s1.36.61 1.36 1.36-.61 1.36-1.36 1.36-1.36-.61-1.36-1.36zm0 6.52c0-.75.61-1.36 1.36-1.36s1.36.61 1.36 1.36-.61 1.36-1.36 1.36-1.36-.61-1.36-1.36zm-11.45-166.7v-5.89h2.71v5.89h-2.71zm-6.47 82.42l-2.71-.11.12-2.87 2.71.11-.12 2.87z"/>
       <path id="Combined-Shape" d="m58.811 108.46l-.517-.33.517-.81v-.24h.151l.793-1.24 10.967 7.03-1.181 5.91-8.017-1.87v8.67l2.469.65-.396 1.51h.910c.749 0 1.357.61 1.357 1.36v256.58c0 .75-.608 1.36-1.357 1.36-.748 0-1.356-.61-1.356-1.36v-255.22h-60.223l-.0003 56.63c0 .75-.6076 1.35-1.3564 1.35-.74867 0-1.3563-.60-1.3563-1.35l-.00003-57.99c0-.75.60766-1.36 1.3563-1.36h4.6117v-16.71l52.628 13.83v-16.4zm2.713 1.74v3.92l5.906 1.38.267-1.34-6.173-3.96zm-52.628 17.54h50.164l-50.164-13.19-.0002 13.19zm-7.3245 65.92c-.74867 0-1.3563-.61-1.3563-1.36l-.00003-.28c0-.75.60766-1.36 1.3563-1.36.7488 0 1.3564.61 1.3564 1.36v.28c0 .75-.6076 1.36-1.3564 1.36zm0 193.38c-.74867 0-1.3563-.61-1.3563-1.36l-.00003-186.27c0-.75.60766-1.36 1.3563-1.36.7488 0 1.3564.61 1.3564 1.36v186.27c0 .75-.6076 1.36-1.3564 1.36zm6.601-243.53v-2.72h49.373v2.72h-49.373zm0 8.26v-2.72h49.373v2.72h-49.373zm0 8.26v-2.72h49.373v2.72h-49.373zm0 8.26v-2.71h49.373v2.71h-49.373zm0 8.27v-2.72h49.373v2.72h-49.373zm0 8.26v-2.72h49.373v2.72h-49.373zm.3624 6.89v-2.72h20.797v2.72h-20.797zm.0944 8.08v-2.72h20.797v2.72h-20.797zm.0944 8.08v-2.72h20.798l-.001 2.72h-20.798zm.0944 8.09v-2.72h20.797v2.72h-20.797zm.0933 8.08v-2.72h20.797v2.72h-20.797zm.0944 8.08v-2.72h20.797v2.72h-20.797zm.0944 8.09v-2.72h20.798v2.72h-20.798zm.0944 8.08v-2.72h20.799v2.72h-20.799zm.0944 8.08v-2.72h20.798v2.72h-20.798zm.0944 8.09v-2.72h20.798v2.72h-20.798zm.0944 8.08v-2.72h20.798v2.72h-20.798zm.0944 8.08v-2.72h20.798v2.72h-20.798zm.0944 8.09v-2.72h20.799v2.72h-20.799zm.0945 8.08v-2.72h20.798v2.72h-20.798zm.0944 8.08v-2.72h20.798v2.72h-20.798zm.0944 8.09v-2.72h20.798v2.72h-20.798zm.0933 8.08v-2.72h20.798v2.72h-20.798zm.094 8.08v-2.72h20.799v2.72h-20.799zm.096 8.09v-2.72h20.797v2.72h-20.797zm.094 8.08v-2.72h20.797v2.72h-20.797zm.095 8.08v-2.72h20.797v2.72h-20.797zm.094 8.09v-2.72h20.797v2.72h-20.797zm.094 8.08v-2.72h20.798v2.72h-20.798zm.095 8.08v-2.72h20.797v2.72h-20.797zm24.957-185.91v-2.72h20.797v2.72h-20.797zm.095 8.08v-2.72h20.797v2.72h-20.797zm.094 8.08v-2.72h20.797v2.72h-20.797zm.095 8.09v-2.72h20.797v2.72h-20.797zm.093 8.08v-2.72h20.797v2.72h-20.797zm.094 8.08v-2.72h20.797v2.72h-20.797zm.095 8.09v-2.72h20.798v2.72h-20.798zm.094 8.08v-2.72h20.798v2.72h-20.798zm.094 8.08v-2.72h20.799v2.72h-20.799zm.095 8.09v-2.72h20.798v2.72h-20.798zm.094 8.08v-2.72h20.798v2.72h-20.798zm.095 8.08v-2.72h20.798v2.72h-20.798zm.094 8.09v-2.72h20.798v2.72h-20.798zm.094 8.08v-2.72h20.799v2.72h-20.799zm.095 8.08v-2.72h20.798v2.72h-20.798zm.094 8.09v-2.72h20.798v2.72h-20.798zm.094 8.08v-2.72h20.798v2.72h-20.798zm.094 8.08v-2.72h20.798v2.72h-20.798zm.095 8.09v-2.72h20.798v2.72h-20.798zm.095 8.08v-2.72h20.797v2.72h-20.797zm.094 8.08v-2.72h20.797v2.72h-20.797zm.095 8.09v-2.72h20.797v2.72h-20.797zm.094 8.08v-2.72h20.797v2.72h-20.797zm.095 8.08v-2.72h20.797v2.72h-20.797z"/>
       <path id="Combined-Shape" d="m161.05 386.5h-2.71v-86.25h112.13v86.25h-2.72v-83.54h-106.7v83.54zm9.63-58.82l-1.92-1.87 1.92-1.99 1.95 1.89-1.95 1.97zm0 6.56l-1.92-1.87 1.92-1.99 1.95 1.89-1.95 1.97zm0 6.56l-1.92-1.88 1.92-1.98 1.95 1.89-1.95 1.97zm0 6.55l-1.92-1.87 1.92-1.99 1.95 1.9-1.95 1.96zm0 6.56l-1.92-1.87 1.92-1.99 1.95 1.89-1.95 1.97zm0 6.56l-1.92-1.87 1.92-1.99 1.95 1.89-1.95 1.97zm0 6.56l-1.92-1.88 1.92-1.99 1.95 1.9-1.95 1.97zm0 6.55l-1.92-1.87 1.92-1.99 1.95 1.9-1.95 1.96zm0 6.56l-1.92-1.87 1.92-1.99 1.95 1.89-1.95 1.97zm0 6.56l-1.92-1.88 1.92-1.98 1.95 1.89-1.95 1.97zm11.58-73.51l-1.92-1.88 1.92-1.98 1.94 1.89-1.94 1.97zm0 6.55l-1.92-1.87 1.92-1.99 1.94 1.9-1.94 1.96zm0 6.56l-1.92-1.87 1.92-1.99 1.94 1.89-1.94 1.97zm0 6.56l-1.92-1.87 1.92-1.99 1.94 1.89-1.94 1.97zm0 6.56l-1.92-1.88 1.92-1.98 1.94 1.89-1.94 1.97zm0 6.55l-1.92-1.87 1.92-1.99 1.94 1.9-1.94 1.96zm0 6.56l-1.92-1.87 1.92-1.99 1.94 1.89-1.94 1.97zm0 6.56l-1.92-1.88 1.92-1.98 1.94 1.89-1.94 1.97zm0 6.56l-1.92-1.88 1.92-1.99 1.94 1.9-1.94 1.97zm0 6.55l-1.92-1.87 1.92-1.99 1.94 1.9-1.94 1.96zm0 6.56l-1.92-1.87 1.92-1.99 1.94 1.89-1.94 1.97zm0 6.56l-1.92-1.88 1.92-1.98 1.94 1.89-1.94 1.97zm10.13-57.64l-1.93-1.87 1.92-1.99 1.95 1.89-1.94 1.97zm0 6.56l-1.93-1.87 1.92-1.99 1.95 1.89-1.94 1.97zm0 6.56l-1.93-1.88 1.92-1.98 1.95 1.89-1.94 1.97zm0 6.55l-1.93-1.87 1.92-1.99 1.95 1.9-1.94 1.96zm0 6.56l-1.93-1.87 1.92-1.99 1.95 1.89-1.94 1.97zm0 6.56l-1.93-1.87 1.92-1.99 1.95 1.89-1.94 1.97zm0 6.56l-1.93-1.88 1.92-1.99 1.95 1.9-1.94 1.97zm0 6.55l-1.93-1.87 1.92-1.99 1.95 1.9-1.94 1.96zm0 6.56l-1.93-1.87 1.92-1.99 1.95 1.89-1.94 1.97zm0 6.56l-1.93-1.88 1.92-1.98 1.95 1.89-1.94 1.97zm13.02-69.16l-1.92-1.88 1.91-1.99 1.95 1.9-1.94 1.97zm0 6.55l-1.92-1.87 1.91-1.99 1.95 1.9-1.94 1.96zm0 6.56l-1.92-1.87 1.91-1.99 1.95 1.89-1.94 1.97zm0 6.56l-1.92-1.88 1.91-1.98 1.95 1.89-1.94 1.97zm0 6.55l-1.92-1.87 1.91-1.99 1.95 1.9-1.94 1.96zm0 6.56l-1.92-1.87 1.91-1.99 1.95 1.9-1.94 1.96zm0 6.56l-1.92-1.87 1.91-1.99 1.95 1.89-1.94 1.97zm0 6.56l-1.92-1.88 1.91-1.98 1.95 1.89-1.94 1.97zm0 6.55l-1.92-1.87 1.91-1.99 1.95 1.9-1.94 1.96zm0 6.56l-1.92-1.87 1.91-1.99 1.95 1.89-1.94 1.97zm0 6.56l-1.92-1.87 1.91-1.99 1.95 1.89-1.94 1.97zm10.13-64.12l-1.93-1.88 1.92-1.98 1.95 1.89-1.94 1.97zm0 6.55l-1.93-1.87 1.92-1.99 1.95 1.9-1.94 1.96zm0 6.56l-1.93-1.87 1.92-1.99 1.95 1.89-1.94 1.97zm0 6.56l-1.93-1.88 1.92-1.98 1.95 1.89-1.94 1.97zm0 6.56l-1.93-1.88 1.92-1.99 1.95 1.9-1.94 1.97zm0 6.55l-1.93-1.87 1.92-1.99 1.95 1.9-1.94 1.96zm0 6.56l-1.93-1.87 1.92-1.99 1.95 1.89-1.94 1.97zm0 6.56l-1.93-1.88 1.92-1.98 1.95 1.89-1.94 1.97zm0 6.55l-1.93-1.87 1.92-1.99 1.95 1.9-1.94 1.96zm0 6.56l-1.93-1.87 1.92-1.99 1.95 1.9-1.94 1.96zm0 6.56l-1.93-1.87 1.92-1.99 1.95 1.89-1.94 1.97zm9.54-48.72l-1.93-1.87 1.92-1.99 1.95 1.9-1.94 1.96zm0 6.56l-1.93-1.87 1.92-1.99 1.95 1.89-1.94 1.97zm0 6.56l-1.93-1.88 1.92-1.98 1.95 1.89-1.94 1.97zm0 6.56l-1.93-1.88 1.92-1.99 1.95 1.9-1.94 1.97zm0 6.55l-1.93-1.87 1.92-1.99 1.95 1.9-1.94 1.96zm0 6.56l-1.93-1.87 1.92-1.99 1.95 1.89-1.94 1.97zm0 6.56l-1.93-1.88 1.92-1.98 1.95 1.89-1.94 1.97zm0 6.55l-1.93-1.87 1.92-1.99 1.95 1.9-1.94 1.96zm0 6.56l-1.93-1.87 1.92-1.99 1.95 1.9-1.94 1.96z"/>
       <path id="Combined-Shape" d="m216.73 51.074h-.04l-1.24-.034c-.75-.020-1.34-.645-1.32-1.394.02-.751.63-1.359 1.39-1.323l1.24.033c.75.020 1.34.644 1.32 1.394-.02.739-.62 1.324-1.35 1.324zm7.03.125h-.01c-.67-.008-1.24-.024-1.76-.038-.58-.016-1.11-.031-1.68-.031-.75 0-1.36-.608-1.36-1.359s.61-1.359 1.36-1.359c.59 0 1.15.014 1.76.032.02.001.05.001.08.002-.08-1.192.13-2.296.64-3.299.84-1.687 2.37-2.863 4.21-3.229 1.05-.206 2.1-.140 3.07.179.67-4.206 2.95-6.427 4.9-7.578 3.14-1.865 7.54-2.011 10.7-.361 2.83 1.482 4.67 4.018 5.51 5.406.96-.189 2.44-.377 3.98-.183 2.27.282 4.27 1.417 5.5 3.111 1.15 1.591 1.64 3.584 1.46 5.942 1.28.009 2.13-.022 2.14-.022.75-.048 1.38.566 1.4 1.316.03.750-.56 1.377-1.31 1.401-.07.002-1.7.054-3.82 0-.39-.009-.77-.194-1.02-.505-.25-.310-.35-.716-.27-1.108.43-2.295.17-4.12-.77-5.425-1.13-1.546-2.92-1.924-3.65-2.014-1.95-.248-3.89.339-3.91.346-.65 0.2-1.34-0.1-1.63-.709-.02-.033-1.72-3.501-4.87-5.146-2-1.046-5.41-1.281-8.06.290-2.39 1.41-3.68 3.992-3.76 7.466-.01.527-.32 1-.81 1.213-.48.214-1.04.129-1.44-.217-.76-.669-1.79-.938-2.82-.735-1.02.202-1.84.835-2.31 1.781-.44.870-.48 1.886-.14 3.106.12.414.03.856-.23 1.195-.26.335-.65.532-1.08.532zm47.8-.071c-.14 0-.29-.023-.43-.069l-.17-.055c-.71-.238-1.09-1.007-.85-1.72.23-.711 1-1.096 1.71-.859l.17.054c.71.238 1.09 1.008.85 1.72-.18.568-.71.929-1.28.929z"/>
       <path id="Combined-Shape" d="m160.72 33.913c-.36 0-.71-.153-.96-.403s-.40-.598-.40-.956c0-.359.15-.707.40-.968.52-0.5 1.41-0.5 1.93 0 .24.261.38.609.38.968 0 .347-.14.706-.38.956-.27.250-.61.403-.97.403zm-5.05.217c-.34 0-.70-.152-.95-.402s-.40-.598-.40-.957.15-.706.40-.967c.50-.501 1.41-.501 1.92 0 .25.261.40.608.40.967s-.15.707-.40.957c-.26.261-.61.402-.97.402zm15.67-.059h-.02c-.87-.011-1.6-.031-2.28-.049-.76-.022-1.45-.041-2.21-.041-.75 0-1.36-.609-1.36-1.359 0-.751.61-1.36 1.36-1.36.78 0 1.5.020 2.29.043.18.004.37.010.56.015-.19-1.651.06-3.169.74-4.53 1.05-2.086 2.94-3.539 5.21-3.988 1.45-.291 2.92-.145 4.24.390.75-5.642 3.73-8.575 6.25-10.071 3.98-2.355 9.54-2.547 13.54-.461 3.78 1.981 6.17 5.442 7.17 7.137 1.19-.256 3.21-.557 5.33-.292 2.83.352 5.33 1.767 6.87 3.879 1.51 2.086 2.11 4.74 1.78 7.905 1.89.017 3.24-.025 3.25-.027.73-.041 1.38.566 1.4 1.316.03.750-.56 1.379-1.31 1.403-.09.002-2.2.067-4.94 0-.40-.010-.77-.195-1.02-.506-.25-.310-.35-.715-.28-1.107.59-3.105.23-5.589-1.08-7.383-1.09-1.508-2.92-2.523-5.01-2.783-2.66-.334-5.25.456-5.28.465-.65.198-1.33-.103-1.63-.711-.02-.045-2.28-4.676-6.51-6.887-2.62-1.368-7.15-1.831-10.9.392-3.22 1.912-4.98 5.392-5.09 10.064-.01.528-.32.999-.80 1.212-.48.214-1.05.130-1.44-.217-1.1-.957-2.56-1.338-4.02-1.051-1.43.285-2.64 1.21-3.3 2.538-.62 1.226-.68 2.644-.21 4.337.12.413.03.856-.23 1.195-.25.335-.65.532-1.07.532zm58.43-.090c-.15 0-.29-.023-.44-.072l-.21-.072c-.71-.241-1.09-1.012-.85-1.723.24-.712 1.01-1.096 1.72-.852l.21.072c.71.241 1.09 1.012.85 1.723-.19.566-.72.924-1.28.924zm-29.02-5.181c-.58 0-1.14-.406-1.35-.963-.26-.704.11-1.485.81-1.744.55-.204 1.16-.022 1.52.418.18 0.2.30.456.33.746.08.683-.36 1.351-1.03 1.511-.09.021-.19.032-.28.032z"/>
       <path id="Combined-Shape" d="m316.58 113.28c-.73 0-1.33-.59-1.35-1.32-.02-.75.57-1.38 1.32-1.4l1.23-.03c.78.01 1.38.58 1.4 1.32.02.75-.58 1.38-1.33 1.4l-1.23.03h-.04zm-7.03.13c-.43 0-.82-.20-1.08-.53-.26-.34-.35-.79-.23-1.2.34-1.22.30-2.24-.14-3.11-.47-.94-1.3-1.58-2.32-1.78s-2.05.07-2.82.74c-.39.34-.95.43-1.44.21-.48-.21-.79-.68-.80-1.21-.08-3.47-1.38-6.05-3.76-7.462-2.65-1.575-6.06-1.339-8.06-.294-3.18 1.656-4.85 5.116-4.87 5.146-.29.61-.99.91-1.63.71-.01-.01-1.95-.59-3.91-.35-.73.10-2.52.47-3.65 2.02-.94 1.3-1.2 3.13-.76 5.42.07.39-.03.80-.28 1.11s-.63.50-1.02.51c-2.12.05-3.75 0-3.82 0-.75-.03-1.33-.65-1.31-1.41.02-.75.64-1.37 1.4-1.31.01 0 .87.02 2.14.02-.18-2.36.31-4.35 1.46-5.94 1.23-1.7 3.24-2.83 5.5-3.11 1.54-.20 3.02-.01 3.98.18.84-1.39 2.68-3.922 5.51-5.406 3.16-1.647 7.56-1.502 10.71.363 1.94 1.151 4.22 3.373 4.89 7.573.97-.31 2.02-.38 3.07-.17 1.84.36 3.37 1.54 4.21 3.23.51 1 .72 2.1.64 3.29h.07c.61-.02 1.17-.03 1.77-.03.75 0 1.36.61 1.36 1.36s-.61 1.36-1.36 1.36c-.57 0-1.11.01-1.7.03-.51.01-1.07.03-1.74.04h-.01zm-47.8-.08c-.56 0-1.1-.36-1.29-.92-.23-.72.15-1.49.86-1.72l.17-.06c.71-.24 1.47.15 1.71.86s-.15 1.48-.86 1.72l-.16.06c-.14.04-.29.06-.43.06z"/>
       <path id="Combined-Shape" d="m12.367 74.086l-2.7647-2.698-2.1412.005-.0130-2.718 2.1113-.005 2.8626-3.035-.023-1.892 2.713-.033.023 1.885 2.76 3.075 2.115.004-.013 2.718-2.291-.004-2.626 2.826c.001.536.004.732.004.739l.020 1.359-2.711.042-.022-1.359s-.003-.232-.004-.909zm-.315-4.101l1.705 1.663 1.61-1.731-1.586-1.765-1.729 1.833z"/>
       <path id="Combined-Shape" d="m157.24 94.132l-2.76-2.698-2.14.005-.02-2.718 2.11-.005 2.87-3.036-.03-1.891 2.72-.034.02 1.886 2.76 3.075 2.12.003-.02 2.718-2.29-.004-2.62 2.827v.739l.02 1.359-2.71.041-.02-1.359s-.01-.231-.01-.908zm-.31-4.101l1.7 1.663 1.61-1.731-1.58-1.765-1.73 1.833z"/>
       <path id="Combined-Shape" d="m72.224 32.856h-2.17c-.747 0-1.356-.609-1.356-1.359s.609-1.359 1.356-1.359h2.17v-1.902c0-.751.609-1.359 1.357-1.359.750 0 1.356.608 1.356 1.359v1.902h2.17c.750 0 1.357.609 1.357 1.359s-.607 1.359-1.357 1.359h-2.17v1.903c0 .750-.606 1.359-1.356 1.359-.748 0-1.357-.609-1.357-1.359v-1.903z"/>
       <path id="Combined-Shape" d="m110.67 60.927h-2.17c-.75 0-1.36-.609-1.36-1.359 0-.751.61-1.359 1.36-1.359h2.17v-1.903c0-.750.61-1.359 1.36-1.359s1.35.609 1.35 1.359v1.903h2.17c.75 0 1.36.608 1.36 1.359 0 .750-.61 1.359-1.36 1.359h-2.17v1.902c0 .750-.60 1.359-1.35 1.359s-1.36-.609-1.36-1.359v-1.902z"/>
       <path id="Combined-Shape" d="m147.9 153.04h-2.17c-.75 0-1.36-.61-1.36-1.36s.61-1.36 1.36-1.36h2.17v-1.9c0-.75.60-1.36 1.35-1.36s1.36.61 1.36 1.36v1.9h2.17c.75 0 1.36.61 1.36 1.36s-.61 1.36-1.36 1.36h-2.17v1.9c0 .75-.61 1.36-1.36 1.36s-1.35-.61-1.35-1.36v-1.9z"/>
       <path id="Fill-401" d="m58.084 86.728c-.580 0-1.143-.407-1.346-.963-.259-.705.102-1.485.805-1.744.558-.205 1.164-.021 1.518.417.179 0.2.303.457.336.746.080.684-.364 1.352-1.033 1.511-.094.022-.187.033-.280.033"/>
       <path id="Fill-402" d="m112.54 93.157c-.58 0-1.14-.405-1.34-.962-.26-.704.10-1.485.80-1.744.56-.203 1.15-.025 1.51.404.18.203.31.465.35.760.07.684-.37 1.35-1.04 1.51-.09.022-.19.032-.28.032"/>
       <path id="Fill-403" d="m159.82 121.57c-.58 0-1.14-.40-1.34-.96-.26-.70.10-1.49.80-1.74.56-.21 1.15-.03 1.51.40.19.20.31.46.35.76.08.68-.37 1.35-1.04 1.51-.09.02-.18.03-.28.03"/>
       <path id="Fill-404" d="m122.1 3.0116c-.57 0-1.14-.4067-1.34-.9633-.26-.7046.10-1.4852.80-1.7439.56-.20553 1.17-.01961 1.52.41745.18.20005.31.45665.34.74585.08.6839-.37 1.3514-1.04 1.5112-.09.0218-.18.0327-.28.0327"/>
       <path id="Fill-405" d="m134.33 107.8l-1.48-.11-1.34-.21.42-2.69 1.3.20 1.31.10-.21 2.71zm-7.15.96l-1.05-2.51 1.4-.57 1.3-.40.79 2.59-1.24.39-1.2.50zm11.06 1.32l-2.17-1.57 1.47-2.19 1.19.76 1.1.80-1.59 2.2zm-13.52.70l-1.08-.83-1-.91.88-.98 2.02 1.69-.82 1.03zm16.11 3.11l-.64-1.17 1.19-.67 1.21-.61-1.21.61 1.21-.60.60 1.19-2.36 1.25zm-18.6 2.29l-2.61-.61.64-2.68 2.63.66-.66 2.63zm21.76 2.34l-2.71-.04v-2.72l2.71-.02v2.78zm-24.06 1.55l1.32-.31-1.32.30-.31-1.31 2.61-.65.33 1.31-2.63.66zm22 3.98l-2.38-1.3 1.28-2.36 2.37 1.21-1.27 2.45zm-18.39 2.2l-.94-1.06-.85-1.06 2.12-1.69 1.67 2.09-2 1.72zm14.18 1.76l-1.69-2.13 1.2-.94 1.14-.73 1.45 2.29-1.09.70-1.01.81zm-9.04 1.08l-1.21-.50-1.24-.38.80-2.6 1.44.45 1.25.52-1.04 2.51zm3.15.30l-.21-2.7 2.66-.21.32 2.6-1.42.21-1.35.10z"/>
       <polygon id="Fill-406" points="178.1 299.03 175.39 299.03 175.39 280.18 145.73 280.18 145.73 277.47 178.1 277.47"/>
      </g>
     </g>
    </g>
   </g>
  </g>
 </g>
</svg>
